HIERARCHY
ROOT hips
{
	OFFSET 0.000000 104.274902 0.000000
	CHANNELS 6 Xposition Yposition Zposition Xrotation Yrotation Zrotation
	JOINT spine
	{
		OFFSET 0.000000 10.181549 0.131524
		CHANNELS 6 Xposition Yposition Zposition Xrotation Yrotation Zrotation
		JOINT chest
		{
			OFFSET 0.000000 9.893990 -1.470706
			CHANNELS 3 Xrotation Yrotation Zrotation
			JOINT upperChest
			{
				OFFSET 0.000000 9.220787 -1.370637
				CHANNELS 3 Xrotation Yrotation Zrotation
				JOINT neck
				{
					OFFSET 0.000000 16.740372 -2.049022
					CHANNELS 6 Xposition Yposition Zposition Xrotation Yrotation Zrotation
					JOINT head
					{
						OFFSET 0.000000 9.617859 1.684976
						CHANNELS 6 Xposition Yposition Zposition Xrotation Yrotation Zrotation
						JOINT headEnd
						{
							OFFSET 0.000000 22.037384 7.501072
							CHANNELS 6 Xposition Yposition Zposition Xrotation Yrotation Zrotation
							End Site
							{
								OFFSET 0.000000 23.106567 -2.828246
							}
						}
					}
				}
				JOINT rightShoulder
				{
					OFFSET -4.570000 11.014877 -2.160840
					CHANNELS 6 Xposition Yposition Zposition Xrotation Yrotation Zrotation
					JOINT rightUpperArm
					{
						OFFSET -10.592867 -0.524796 -2.232105
						CHANNELS 3 Xrotation Yrotation Zrotation
						JOINT rightLowerArm
						{
							OFFSET -27.841497 0.000000 -0.000002
							CHANNELS 3 Xrotation Yrotation Zrotation
							JOINT rightHand
							{
								OFFSET -28.328812 0.000000 -0.000001
								CHANNELS 3 Xrotation Yrotation Zrotation
								JOINT rightThumbProximal
								{
									OFFSET -2.464798 -1.573990 2.681911
									CHANNELS 6 Xposition Yposition Zposition Xrotation Yrotation Zrotation
									JOINT rightThumbIntermediate
									{
										OFFSET -3.244781 -1.873383 1.873376
										CHANNELS 3 Xrotation Yrotation Zrotation
										JOINT rightThumbDistal
										{
											OFFSET -2.646263 -1.527817 1.527818
											CHANNELS 6 Xposition Yposition Zposition Xrotation Yrotation Zrotation
											JOINT rightHandThumb4
											{
												OFFSET -1.994591 -1.151581 1.151575
												CHANNELS 6 Xposition Yposition Zposition Xrotation Yrotation Zrotation
												End Site
												{
													OFFSET -1.860176 -1.142715 1.365483
												}
											}
										}
									}
								}
								JOINT rightIndexProximal
								{
									OFFSET -9.108299 -0.517883 2.259803
									CHANNELS 6 Xposition Yposition Zposition Xrotation Yrotation Zrotation
									JOINT rightIndexIntermediate
									{
										OFFSET -3.699997 0.000000 0.000000
										CHANNELS 3 Xrotation Yrotation Zrotation
										JOINT rightIndexDistal
										{
											OFFSET -2.850006 0.000000 0.000000
											CHANNELS 3 Xrotation Yrotation Zrotation
											JOINT rightHandIndex4
											{
												OFFSET -2.772194 0.000000 0.000000
												CHANNELS 3 Xrotation Yrotation Zrotation
												End Site
												{
													OFFSET -2.772202 0.000000 -0.000484
												}
											}
										}
									}
								}
								JOINT rightMiddleProximal
								{
									OFFSET -9.532501 0.000000 -0.000000
									CHANNELS 6 Xposition Yposition Zposition Xrotation Yrotation Zrotation
									JOINT rightMiddleIntermediate
									{
										OFFSET -3.699997 0.000000 0.000000
										CHANNELS 3 Xrotation Yrotation Zrotation
										JOINT rightMiddleDistal
										{
											OFFSET -2.949997 0.000000 0.000000
											CHANNELS 3 Xrotation Yrotation Zrotation
											JOINT rightHandMiddle4
											{
												OFFSET -2.946594 0.000000 0.000000
												CHANNELS 3 Xrotation Yrotation Zrotation
												End Site
												{
													OFFSET -2.946602 0.000000 -0.000982
												}
											}
										}
									}
								}
								JOINT rightRingProximal
								{
									OFFSET -9.103600 -0.043106 -1.865100
									CHANNELS 6 Xposition Yposition Zposition Xrotation Yrotation Zrotation
									JOINT rightRingIntermediate
									{
										OFFSET -3.379303 0.000000 0.000000
										CHANNELS 3 Xrotation Yrotation Zrotation
										JOINT rightRingDistal
										{
											OFFSET -2.889694 0.000000 0.000000
											CHANNELS 3 Xrotation Yrotation Zrotation
											JOINT rightHandRing4
											{
												OFFSET -2.638802 0.000000 0.000000
												CHANNELS 3 Xrotation Yrotation Zrotation
												End Site
												{
													OFFSET -2.638802 0.000000 0.004218
												}
											}
										}
									}
								}
								JOINT rightLittleProximal
								{
									OFFSET -8.076698 -0.486725 -3.806299
									CHANNELS 6 Xposition Yposition Zposition Xrotation Yrotation Zrotation
									JOINT rightLittleIntermediate
									{
										OFFSET -3.600006 0.000000 0.000000
										CHANNELS 3 Xrotation Yrotation Zrotation
										JOINT rightLittleDistal
										{
											OFFSET -2.099998 0.000000 0.000000
											CHANNELS 3 Xrotation Yrotation Zrotation
											JOINT rightHandPinky4
											{
												OFFSET -2.115791 0.000000 0.000000
												CHANNELS 3 Xrotation Yrotation Zrotation
												End Site
												{
													OFFSET -2.115799 0.000000 0.000174
												}
											}
										}
									}
								}
							}
						}
					}
				}
				JOINT leftShoulder
				{
					OFFSET 4.570400 11.014679 -2.160816
					CHANNELS 6 Xposition Yposition Zposition Xrotation Yrotation Zrotation
					JOINT leftUpperArm
					{
						OFFSET 10.592373 -0.524597 -2.232116
						CHANNELS 3 Xrotation Yrotation Zrotation
						JOINT leftLowerArm
						{
							OFFSET 27.841488 0.000000 0.000001
							CHANNELS 3 Xrotation Yrotation Zrotation
							JOINT leftHand
							{
								OFFSET 28.328808 0.000000 -0.000000
								CHANNELS 3 Xrotation Yrotation Zrotation
								JOINT leftThumbProximal
								{
									OFFSET 2.466103 -1.576202 2.681698
									CHANNELS 6 Xposition Yposition Zposition Xrotation Yrotation Zrotation
									JOINT leftThumbIntermediate
									{
										OFFSET 3.243317 -1.872528 1.872530
										CHANNELS 3 Xrotation Yrotation Zrotation
										JOINT leftThumbDistal
										{
											OFFSET 2.647881 -1.528763 1.528754
											CHANNELS 6 Xposition Yposition Zposition Xrotation Yrotation Zrotation
											JOINT leftHandThumb4
											{
												OFFSET 1.998924 -1.154083 1.154080
												CHANNELS 6 Xposition Yposition Zposition Xrotation Yrotation Zrotation
												End Site
												{
													OFFSET 1.884041 -1.149155 1.337651
												}
											}
										}
									}
								}
								JOINT leftIndexProximal
								{
									OFFSET 9.109299 -0.518005 2.259900
									CHANNELS 6 Xposition Yposition Zposition Xrotation Yrotation Zrotation
									JOINT leftIndexIntermediate
									{
										OFFSET 3.699997 0.000000 0.000000
										CHANNELS 3 Xrotation Yrotation Zrotation
										JOINT leftIndexDistal
										{
											OFFSET 2.850006 0.000000 0.000000
											CHANNELS 3 Xrotation Yrotation Zrotation
											JOINT leftHandIndex4
											{
												OFFSET 2.774895 0.000000 0.000000
												CHANNELS 3 Xrotation Yrotation Zrotation
												End Site
												{
													OFFSET 2.774902 0.000000 -0.000072
												}
											}
										}
									}
								}
								JOINT leftMiddleProximal
								{
									OFFSET 9.533401 0.000000 0.000000
									CHANNELS 6 Xposition Yposition Zposition Xrotation Yrotation Zrotation
									JOINT leftMiddleIntermediate
									{
										OFFSET 3.699997 0.000000 0.000000
										CHANNELS 3 Xrotation Yrotation Zrotation
										JOINT leftMiddleDistal
										{
											OFFSET 2.949997 0.000000 0.000000
											CHANNELS 3 Xrotation Yrotation Zrotation
											JOINT leftHandMiddle4
											{
												OFFSET 2.952896 0.000000 0.000000
												CHANNELS 3 Xrotation Yrotation Zrotation
												End Site
												{
													OFFSET 2.952904 0.000000 0.000165
												}
											}
										}
									}
								}
								JOINT leftRingProximal
								{
									OFFSET 9.104500 -0.042999 -1.865101
									CHANNELS 6 Xposition Yposition Zposition Xrotation Yrotation Zrotation
									JOINT leftRingIntermediate
									{
										OFFSET 3.149994 0.000000 0.000000
										CHANNELS 3 Xrotation Yrotation Zrotation
										JOINT leftRingDistal
										{
											OFFSET 2.950005 0.000000 0.000000
											CHANNELS 3 Xrotation Yrotation Zrotation
											JOINT leftHandRing4
											{
												OFFSET 2.644302 0.000000 0.000000
												CHANNELS 3 Xrotation Yrotation Zrotation
												End Site
												{
													OFFSET 2.644302 0.000000 0.000083
												}
											}
										}
									}
								}
								JOINT leftLittleProximal
								{
									OFFSET 8.077805 -0.486893 -3.806302
									CHANNELS 6 Xposition Yposition Zposition Xrotation Yrotation Zrotation
									JOINT leftLittleIntermediate
									{
										OFFSET 3.600006 0.000000 0.000000
										CHANNELS 3 Xrotation Yrotation Zrotation
										JOINT leftLittleDistal
										{
											OFFSET 2.099998 0.000000 0.000000
											CHANNELS 3 Xrotation Yrotation Zrotation
											JOINT leftHandPinky4
											{
												OFFSET 2.125496 0.000000 0.000000
												CHANNELS 3 Xrotation Yrotation Zrotation
												End Site
												{
													OFFSET 2.125504 0.000000 -0.001254
												}
											}
										}
									}
								}
							}
						}
					}
				}
			}
		}
	}
	JOINT rightUpperLeg
	{
		OFFSET -8.207800 -6.751701 -1.599544
		CHANNELS 6 Xposition Yposition Zposition Xrotation Yrotation Zrotation
		JOINT rightLowerLeg
		{
			OFFSET 0.000004 -44.370152 0.345934
			CHANNELS 3 Xrotation Yrotation Zrotation
			JOINT rightFoot
			{
				OFFSET 0.000004 -44.423664 -3.043535
				CHANNELS 3 Xrotation Yrotation Zrotation
				JOINT rightToes
				{
					OFFSET 0.000001 -8.728691 10.710592
					CHANNELS 3 Xrotation Yrotation Zrotation
					JOINT rightToesEnd
					{
						OFFSET 0.000000 -0.000665 9.278101
						CHANNELS 3 Xrotation Yrotation Zrotation
						End Site
						{
							OFFSET 0.000000 -0.000665 9.278103
						}
					}
				}
			}
		}
	}
	JOINT leftUpperLeg
	{
		OFFSET 8.207800 -6.751701 -1.599544
		CHANNELS 6 Xposition Yposition Zposition Xrotation Yrotation Zrotation
		JOINT leftLowerLeg
		{
			OFFSET 0.000004 -44.370037 0.346940
			CHANNELS 3 Xrotation Yrotation Zrotation
			JOINT leftFoot
			{
				OFFSET 0.000004 -44.423611 -3.044388
				CHANNELS 3 Xrotation Yrotation Zrotation
				JOINT leftToes
				{
					OFFSET 0.000001 -8.728690 10.710592
					CHANNELS 3 Xrotation Yrotation Zrotation
					JOINT leftToesEnd
					{
						OFFSET 0.000000 -0.000680 9.278101
						CHANNELS 3 Xrotation Yrotation Zrotation
						End Site
						{
							OFFSET 0.000000 -0.000680 9.278101
						}
					}
				}
			}
		}
	}
}
MOTION
Frames: 4
Frame Time: 0.033333
-0.301313 94.422951 2.744801 -8.583745 -13.146606 1.515849 -0.000000 10.181562 0.131525 -0.753988 2.048763 -3.973957 8.737511 0.082709 -0.966352 8.741235 0.148172 -0.949499 0.000000 16.740360 -2.049018 -1.671230 1.683758 0.533473 -0.000000 9.617874 1.684983 -18.043924 10.852440 -4.668319 0.000002 22.037399 7.501069 -0.000000 0.000000 0.000000 -4.570000 11.014879 -2.160839 0.762434 5.560955 0.561391 70.628876 0.849807 58.168350 0.000126 124.661198 -0.000074 18.267384 -6.183990 -4.491688 -2.464773 -1.574003 2.681906 -2.620262 -23.323388 -9.850530 4.637199 -8.634128 -0.225387 -2.646284 -1.527818 1.527818 -1.273752 0.137316 -2.094867 -1.994587 -1.151585 1.151577 -0.000001 -0.000007 0.000001 -9.108290 -0.517867 2.259800 0.004795 -0.258779 2.123869 0.040477 -0.750611 6.171595 0.040458 -0.750623 6.171581 -0.000005 0.000002 0.000001 -9.532493 0.000007 -0.000004 0.011934 -0.408200 3.351498 0.057834 -0.896674 7.378776 0.058296 -0.900353 7.409168 -0.000000 -0.000001 0.000002 -9.103581 -0.043090 -1.865106 0.025553 -0.596834 4.903588 0.084005 -1.079671 8.896130 0.084242 -1.081309 8.909816 -0.000005 -0.000000 -0.000000 -8.076677 -0.486728 -3.806301 0.040663 -0.752381 6.186113 0.107707 -1.221566 10.077110 0.107704 -1.221564 10.077123 -0.000003 0.000001 0.000001 4.570397 11.014663 -2.160814 0.963208 -5.156262 13.308067 71.220705 -35.969224 -48.794127 -0.000012 -107.723394 -0.000014 4.158470 -3.992386 52.436175 2.466088 -1.576219 2.681704 -3.091680 17.377847 12.080258 3.939033 7.948696 0.746790 2.647902 -1.528748 1.528745 -0.579460 1.575017 2.538712 1.998928 -1.154093 1.154074 0.000001 -0.000006 0.000002 9.109297 -0.518017 2.259900 0.003932 -0.233048 1.931426 0.205051 1.671264 -13.990937 0.205071 1.671252 -13.990919 0.000004 0.000000 0.000005 9.533401 0.000010 0.000004 0.001697 -0.153111 1.268877 0.222093 1.738180 -14.563756 0.229839 1.767661 -14.816405 -0.000000 0.000001 -0.000000 9.104497 -0.042990 -1.865102 0.000188 -0.050683 0.420305 0.248101 1.835336 -15.397867 0.256525 1.865571 -15.658216 -0.000002 -0.000006 -0.000002 8.077799 -0.486899 -3.806306 -0.000500 4.084205 0.263126 0.272936 -2.130572 -16.671493 0.273809 1.926136 -16.180754 -0.000003 -0.000004 -0.000000 -8.207800 -6.751706 -1.599539 -12.616560 -1.574272 -9.291853 47.931249 -4.835231 -7.211619 -26.302244 -3.637007 13.318135 -0.570313 0.000002 0.000000 -0.000000 -0.000002 0.000000 8.207799 -6.751690 -1.599543 -9.303461 1.918592 1.066566 45.444138 9.027462 4.820712 -24.887987 10.489162 -12.522088 -0.000054 0.000001 -0.000004 -0.000000 0.000000 0.000000 
-0.087927 93.213409 2.299175 -10.914194 -12.879930 0.112996 0.000000 10.181549 0.131522 1.426936 2.322466 -3.520196 9.361106 0.185284 -0.380528 9.361126 0.251905 -0.356787 -0.000000 16.740377 -2.049016 -2.373688 1.631083 0.349574 -0.000001 9.617867 1.684978 -19.232619 10.411478 -4.613304 -0.000001 22.037369 7.501085 0.000002 -0.000000 0.000000 -4.570001 11.014883 -2.160840 0.770611 5.904870 0.947392 72.993754 -4.342280 60.701783 0.000098 129.883683 -0.000041 18.498034 -6.154204 -1.841713 -2.464786 -1.573992 2.681909 -2.620266 -23.323388 -9.850534 4.637200 -8.634131 -0.225385 -2.646276 -1.527806 1.527830 -1.273761 0.137314 -2.094867 -1.994605 -1.151579 1.151583 0.000005 -0.000001 -0.000000 -9.108301 -0.517879 2.259801 0.005911 -0.287453 2.359509 0.042027 -0.764894 6.289393 0.042018 -0.764879 6.289431 -0.000002 0.000003 -0.000001 -9.532516 0.000007 -0.000004 0.013275 -0.430239 3.532715 0.059284 -0.907985 7.472349 0.059732 -0.911258 7.499429 0.000003 0.000000 0.000001 -9.103605 -0.043113 -1.865100 0.026767 -0.610808 5.018755 0.085126 -1.086829 8.955563 0.085318 -1.088217 8.967196 -0.000005 -0.000001 -0.000000 -8.076705 -0.486710 -3.806299 0.041492 -0.759967 6.248852 0.108376 -1.225327 10.108496 0.108365 -1.225324 10.108500 -0.000002 -0.000001 -0.000004 4.570400 11.014694 -2.160816 0.912049 -4.822474 13.060175 69.779589 -36.285400 -47.249821 0.000005 -107.708388 0.000015 6.156863 -4.900537 52.814380 2.466100 -1.576221 2.681691 -3.091682 17.377840 12.080259 3.939025 7.948702 0.746792 2.647901 -1.528752 1.528751 -0.579458 1.575015 2.538716 1.998925 -1.154092 1.154077 -0.000002 -0.000001 -0.000000 9.109299 -0.518006 2.259890 0.003693 -0.226017 1.873197 0.205715 1.673846 -14.013012 0.205715 1.673823 -14.013038 0.000000 0.000003 -0.000000 9.533389 -0.000002 -0.000011 0.001535 -0.146015 1.210119 0.222782 1.740811 -14.586210 0.230497 1.770133 -14.837715 -0.000001 -0.000000 -0.000003 9.104494 -0.043005 -1.865113 0.000132 -0.043476 0.360405 0.248814 1.837888 -15.419874 0.257185 1.867971 -15.679022 0.000003 0.000001 -0.000001 8.077806 -0.486898 -3.806316 0.003868 4.091542 0.201781 0.273641 -2.128149 -16.692301 0.274499 1.928555 -16.201589 -0.000002 -0.000003 -0.000003 -8.207800 -6.751695 -1.599543 -11.844282 -1.552251 -8.109846 50.890281 -5.440169 -7.809288 -27.633880 -4.081847 13.861232 -0.650596 -0.000005 -0.000002 0.000000 -0.000000 0.000000 8.207799 -6.751697 -1.599544 -9.220396 2.815898 2.494769 49.332407 9.572566 5.228342 -26.741567 9.137906 -13.306450 -0.000045 -0.000002 0.000001 -0.000000 0.000000 0.000000 
0.268023 92.241844 1.718239 -14.068926 -13.033704 -1.530711 -0.000000 10.181559 0.131525 4.567453 2.198934 -3.471417 10.131393 0.234285 0.288489 10.128308 0.314776 0.309966 -0.000000 16.740364 -2.049022 -3.119909 1.459469 0.555152 -0.000001 9.617832 1.684984 -20.832917 9.761675 -4.394320 0.000002 22.037384 7.501087 -0.000000 0.000000 -0.000000 -4.570000 11.014868 -2.160838 0.778377 6.087550 1.325049 73.910898 -10.129343 63.852481 0.000095 133.973382 -0.000055 20.207128 -6.013307 3.021332 -2.464808 -1.573994 2.681908 -2.620265 -23.323377 -9.850530 4.637202 -8.634121 -0.225388 -2.646291 -1.527806 1.527815 -1.273762 0.137309 -2.094873 -1.994594 -1.151583 1.151577 -0.000003 -0.000002 0.000001 -9.108300 -0.517886 2.259801 0.012639 -0.419891 3.447580 0.049616 -0.830739 6.833532 0.049583 -0.830755 6.833545 -0.000002 0.000003 -0.000001 -9.532505 -0.000008 -0.000007 0.019284 -0.518439 4.258197 0.065358 -0.953210 7.846887 0.065610 -0.954885 7.860778 0.000001 -0.000003 -0.000002 -9.103615 -0.043114 -1.865110 0.029847 -0.644943 5.299919 0.087890 -1.104286 9.100751 0.088012 -1.105073 9.107262 0.000002 -0.000000 0.000001 -8.076700 -0.486729 -3.806303 0.040484 -0.750912 6.174054 0.107586 -1.220844 10.071092 0.107570 -1.220855 10.071094 -0.000002 0.000001 -0.000001 4.570398 11.014672 -2.160816 0.873826 -4.563616 13.241227 67.921689 -36.686691 -45.420567 -0.000001 -107.346135 0.000005 7.934513 -6.483803 53.468247 2.466091 -1.576206 2.681695 -3.091686 17.377837 12.080262 3.939027 7.948700 0.746792 2.647892 -1.528746 1.528747 -0.579459 1.575018 2.538713 1.998917 -1.154094 1.154079 0.000000 -0.000001 -0.000000 9.109287 -0.518000 2.259893 0.003684 -0.225924 1.872443 0.205667 1.673653 -14.011487 0.205659 1.673663 -14.011493 0.000002 0.000001 -0.000001 9.533390 0.000017 -0.000006 0.001530 -0.145123 1.202679 0.222825 1.740980 -14.587717 0.230530 1.770304 -14.839097 0.000001 -0.000002 -0.000004 9.104488 -0.042985 -1.865105 0.000128 -0.041657 0.345220 0.248975 1.838492 -15.425304 0.257357 1.868585 -15.684131 -0.000004 -0.000001 0.000001 8.077796 -0.486881 -3.806304 0.005442 4.094145 0.180001 0.273917 -2.127199 -16.700518 0.274776 1.929511 -16.209834 -0.000000 -0.000000 -0.000001 -8.207802 -6.751702 -1.599542 -10.139593 -2.182244 -6.764140 52.939000 -5.438483 -9.345619 -28.388056 -4.541536 14.500336 -1.113073 0.000007 -0.000003 -0.000000 -0.000000 -0.000000 8.207800 -6.751697 -1.599543 -8.035457 5.027426 4.185070 52.233438 9.795542 6.084572 -28.232454 7.421091 -13.973982 -0.000018 0.000000 -0.000002 0.000000 -0.000000 0.000000 
0.724736 91.424843 0.921244 -17.749795 -14.141290 -3.386109 -0.000000 10.181568 0.131521 8.845539 1.814095 -4.171767 11.062388 0.249615 1.175963 11.057066 0.371309 1.183754 0.000000 16.740368 -2.049021 -4.048344 1.399376 0.967708 0.000000 9.617854 1.684973 -23.522335 9.916550 -4.037292 -0.000000 22.037369 7.501076 0.000001 0.000000 0.000000 -4.570001 11.014857 -2.160843 0.790331 6.082768 1.723107 69.614907 -15.497797 66.101259 0.000123 135.123586 -0.000064 23.438718 -5.019607 8.521047 -2.464785 -1.573999 2.681903 -2.620240 -23.323383 -9.850511 4.637197 -8.634125 -0.225387 -2.646276 -1.527801 1.527818 -1.273762 0.137311 -2.094870 -1.994582 -1.151580 1.151575 0.000004 0.000002 -0.000001 -9.108294 -0.517877 2.259797 0.068644 -0.976594 8.040764 0.088475 -1.107860 9.130434 0.088455 -1.107855 9.130441 -0.000001 0.000002 -0.000001 -9.532501 0.000011 -0.000004 0.063412 -0.938850 7.728048 0.098561 -1.168898 9.638232 0.097538 -1.162976 9.588993 -0.000004 -0.000002 0.000002 -9.103596 -0.043090 -1.865108 0.058218 -0.899639 7.403385 0.110051 -1.234707 10.186771 0.109369 -1.230910 10.154960 -0.000005 -0.000001 -0.000001 -8.076697 -0.486721 -3.806307 0.054929 -0.873978 7.191086 0.118677 -1.281802 10.579741 0.118688 -1.281800 10.579745 -0.000002 0.000001 -0.000000 4.570397 11.014667 -2.160816 0.871729 -4.660158 13.836994 65.546026 -37.357662 -43.466474 -0.000028 -106.490681 -0.000013 7.256544 -8.600549 54.329107 2.466106 -1.576216 2.681690 -3.091686 17.377837 12.080262 3.939025 7.948704 0.746788 2.647882 -1.528732 1.528755 -0.579460 1.575020 2.538720 1.998924 -1.154090 1.154076 0.000001 -0.000003 0.000003 9.109299 -0.518016 2.259894 0.004581 -0.251494 2.084403 0.202562 1.661237 -13.905372 0.202581 1.661234 -13.905384 -0.000001 -0.000004 -0.000002 9.533401 0.000011 -0.000006 0.001922 -0.163226 1.352504 0.220489 1.731960 -14.510380 0.228230 1.761609 -14.764444 -0.000001 -0.000005 -0.000002 9.104495 -0.042992 -1.865105 0.000173 -0.050535 0.418700 0.247763 1.834093 -15.387218 0.256144 1.864321 -15.647412 0.000001 -0.000001 -0.000003 8.077801 -0.486897 -3.806307 0.004517 4.092592 0.192821 0.273718 -2.127958 -16.694075 0.274552 1.928768 -16.203388 0.000002 0.000002 -0.000001 -8.207802 -6.751701 -1.599544 -8.615931 -2.983140 -6.288116 55.089902 -4.073348 -10.039069 -28.813573 -4.362263 14.104350 -2.074434 0.000010 -0.000002 -0.000000 0.000000 0.000000 8.207799 -6.751694 -1.599546 -6.118571 7.480223 5.757061 54.545484 9.670114 6.709948 -29.384399 6.727642 -14.198125 -0.000017 0.000001 -0.000004 -0.000000 0.000000 0.000000 
